inDegrees=no
num_controls=7
num_derivatives=13
num_iterations=123
num_multipliers=7
num_parameters=0
num_slacks=7
num_states=26
objective=5.309664
objective_accelerations=0.793612
objective_balance=0.025233
objective_effort=0.245549
objective_height=4.125296
objective_ligament=0.119972
solver_duration=1429.974271
status=Solve_Succeeded
success=true
DataType=double
version=3
OpenSimVersion=4.4-2022-07-23-0e9fedc
endheader
time	/jointset/ground_pelvis/pelvis_tilt/value	/jointset/ground_pelvis/pelvis_tx/value	/jointset/ground_pelvis/pelvis_ty/value	/jointset/hip_l/hip_flexion_l/value	/jointset/hip_l/hip_adduction_l/value	/jointset/hip_l/hip_rotation_l/value	/jointset/back/lumbar_extension/value	/jointset/patellofemoral_l/patellar_flexion_l/value	/jointset/knee_l/knee_flexion_l/value	/jointset/knee_l/knee_adduction_l/value	/jointset/knee_l/knee_rotation_l/value	/jointset/ankle_l/ankle_angle_l/value	/jointset/subtalar_l/subtalar_angle_l/value	/jointset/ground_pelvis/pelvis_tilt/speed	/jointset/ground_pelvis/pelvis_tx/speed	/jointset/ground_pelvis/pelvis_ty/speed	/jointset/hip_l/hip_flexion_l/speed	/jointset/hip_l/hip_adduction_l/speed	/jointset/hip_l/hip_rotation_l/speed	/jointset/back/lumbar_extension/speed	/jointset/patellofemoral_l/patellar_flexion_l/speed	/jointset/knee_l/knee_flexion_l/speed	/jointset/knee_l/knee_adduction_l/speed	/jointset/knee_l/knee_rotation_l/speed	/jointset/ankle_l/ankle_angle_l/speed	/jointset/subtalar_l/subtalar_angle_l/speed	/forceset/tau_hip_flexion_l	/forceset/tau_hip_adduction_l	/forceset/tau_hip_rotation_l	/forceset/tau_knee_flexion_l	/forceset/tau_ankle_angle_l	/forceset/tau_subtalar_angle_l	/forceset/tau_lumbar_extension	lambda_cid13_p0	lambda_cid13_p1	lambda_cid13_p2	lambda_cid13_p3	lambda_cid13_p4	lambda_cid13_p5	lambda_cid14_p0	/jointset/ground_pelvis/pelvis_tilt/accel	/jointset/ground_pelvis/pelvis_tx/accel	/jointset/ground_pelvis/pelvis_ty/accel	/jointset/hip_l/hip_flexion_l/accel	/jointset/hip_l/hip_adduction_l/accel	/jointset/hip_l/hip_rotation_l/accel	/jointset/back/lumbar_extension/accel	/jointset/patellofemoral_l/patellar_flexion_l/accel	/jointset/knee_l/knee_flexion_l/accel	/jointset/knee_l/knee_adduction_l/accel	/jointset/knee_l/knee_rotation_l/accel	/jointset/ankle_l/ankle_angle_l/accel	/jointset/subtalar_l/subtalar_angle_l/accel	gamma_cid13_p0	gamma_cid13_p1	gamma_cid13_p2	gamma_cid13_p3	gamma_cid13_p4	gamma_cid13_p5	gamma_cid14_p0
0.5	-0.4309382512706623	-0.08070450964766096	0.7566446909881073	1.273027976603951	-0.3466109686756219	-0.04823836214209405	-0.4118398937153548	0.783325300181503	0.7833253001815044	-0.03225967380108852	-0.17448752168455	0.05315673430014557	0.09061336387903762	-1.349348832153718	-0.4188918203108865	-0.5829016030764942	3.108378071180448	0.04236103003184237	0.4894093198279625	-0.2705150133612822	1.522866610845066	1.522866610845855	0.2012036881009956	0.0006177849034808774	-0.1292110089754713	-0.001030347858756437	-0.1709070601231012	-0.00476886600860373	0.0004559915341203592	-0.1570999052207811	0.1092127291537309	0.02015628541000822	0.1537405181688555	11.14263658066366	-8.668749127954195	-1.224713873973975	-10.64260540742841	-434.088975350725	-72.78022789320968	-11.70775341451514	0.6504184458002947	0.8218570511033493	-0.4223792632973149	-1.930608395556987	0.203151440709947	-0.5245887255654923	1.69994148618317	-1.281884893779806	-1.281884893779801	-0.3223168271680412	0.004398720620028437	-0.1261372653141059	0.1809214063648194	-2.378129610309618e-07	-1.393609988041486e-07	1.917796435614893e-06	4.047229977359513e-08	-6.292918158001339e-07	8.025759168136149e-07	-3.529450207244709e-07
0.51	-0.4443961269974592	-0.08485174982744512	0.7507960649673113	1.304009135760307	-0.3461791886558328	-0.04336904329042572	-0.4144615265563812	0.7984872514235086	0.798487251423398	-0.03026861475042375	-0.1744814493666348	0.05185795534738822	0.09060986494765529	-1.34204629302159	-0.4105100215380386	-0.5866839332241978	3.087426308764934	0.04398580441991715	0.4843979135958862	-0.2538184266307217	1.509296414898195	1.509296414898176	0.1970005709670451	0.0005901767599243181	-0.1305354127503978	0.0003240250184093505	-0.1781247102608316	-0.00417890912978715	-1.763064535499383e-05	-0.1579148491114763	0.1113814309316743	0.02057778602288314	0.1587638538620136	11.63448406794227	-8.765896179865194	-1.40572551335758	-11.01719491126425	-438.3139608611356	-72.7525932198801	-11.07707554153788	0.7971250399816373	0.8532791827660771	-0.3353317455319089	-2.241639749647814	0.1405967676099921	-0.4982052357914727	1.653486498294048	-1.428600053904636	-1.428600054025955	-0.4704400240994744	-0.006921925227133093	-0.1341899033953973	0.1115035591974978	-2.337340909357491e-07	-7.749807912191514e-08	1.940777598050131e-06	4.74628099894442e-08	-5.899164905457899e-07	8.386080325261364e-07	-3.470233781584006e-07
0.52	-0.4577755866543184	-0.08891378444102306	0.7449137812740333	1.334767941375484	-0.3457314696262039	-0.03855159623398417	-0.4169163996837353	0.8135066980842264	0.8135066980841965	-0.02831981304399226	-0.1744757693989389	0.05054621276291319	0.09061967141120598	-1.3336656181669	-0.4018507070696469	-0.5896331375728862	3.063907362945492	0.0455488319982912	0.4790349608132544	-0.2371630706280852	1.494365694600773	1.494365694599947	0.19275221912939	0.0005393148810216985	-0.1318037353178667	0.001630731127756319	-0.1853423603986725	-0.003588952251678652	-0.0004912528223125936	-0.1587297930022528	0.1135501327094025	0.02099928663491472	0.1637871895552025	12.12647862160288	-8.864738266127896	-1.584559467636067	-11.40591648463944	-442.5409005418523	-72.79469794014369	-10.44970399379145	0.866045590313086	0.8773601902119283	-0.255754103494328	-2.444045076341866	0.1908020787699004	-0.5948980356766906	1.691695340598409	-1.553989763889841	-1.55398976388974	-0.3313637679090013	-0.0002520264495311127	-0.1149210238228076	0.1713880528008596	-2.275813191430166e-07	-1.443848124489907e-08	1.952629776478704e-06	5.469480248297511e-08	-5.490000526922515e-07	8.652523004324435e-07	-3.380936032537087e-07
0.53	-0.4710660557564511	-0.09288793026988151	0.739006174154707	1.365279144090169	-0.3452683639259916	-0.03378923989368823	-0.4192049733664182	0.828370298386103	0.8283702983859108	-0.0264136854192315	-0.174470528466562	0.04922217263191034	0.09064240797303226	-1.324255792983706	-0.3929403388478696	-0.5917460685233877	3.037921545746873	0.04705806193093083	0.4733775840015941	-0.2205772929502885	1.478140115127878	1.478140115127734	0.1884660030950402	0.0004959185930253351	-0.1329900637397553	0.002906244670617684	-0.1925191058147367	-0.003761335261240597	-0.0009120825163111979	-0.1596083893898118	0.1155855311227076	0.02181980660048069	0.1687090216726577	12.59566248605253	-9.131794942001166	-1.737816086891167	-11.75052932996177	-446.8119825186678	-73.23761180876204	-9.826492055355656	1.004265599072876	0.9036048144400871	-0.1678354274136265	-2.737652797039369	0.1286521108034633	-0.5602539268831587	1.638174924896944	-1.688912953900968	-1.688912953798777	-0.478322273975184	-0.007931091070235968	-0.1183518167685998	0.1038480825636054	-2.214412042168727e-07	3.286155463653391e-08	1.950589288989634e-06	5.984611415773464e-08	-5.098202446885161e-07	8.903657786664673e-07	-3.299735117593679e-07
0.54	-0.4842572636833998	-0.09677182648126686	0.7330816831585588	1.395518128081804	-0.3447906321943865	-0.02908527660615636	-0.4213284580836096	0.8430652287101927	0.8430652287100092	-0.02455063430505382	-0.1744660310293614	0.04788669660360789	0.09067754268579416	-1.313813383130458	-0.3838007835750319	-0.5930099129372652	3.009463618331575	0.04847403827531461	0.467356350271019	-0.2041452775314125	1.460631699058524	1.460631699059061	0.18413691694958	0.0003906158612139482	-0.1340909147775138	0.004110361314868649	-0.1996958512306431	-0.003933718271004537	-0.001332912208688135	-0.1604869857773831	0.1176209295359267	0.02264032656578636	0.1736308537903229	13.06413151784451	-9.400435764675635	-1.888866961394619	-12.10849280706666	-451.1005394885354	-73.74951941178986	-9.208479352618777	1.072562524324097	0.9231976004238015	-0.08593679616958719	-2.938467119677461	0.1721513611187614	-0.667669419459733	1.660942888814368	-1.810557083181531	-1.810557083181471	-0.3399377901310948	-0.01263331521275281	-0.09782554699704962	0.1571086730786179	-2.153150926324862e-07	6.272547937391737e-08	1.933178192400194e-06	6.269539599044919e-08	-4.725618143909457e-07	9.13785617263071e-07	-3.227492402083943e-07
